<svg xmlns="http://www.w3.org/2000/svg" viewBox="0 0 399.03598 259.34636" height="276.636" width="425.638"><path d="M132.188 42.52l-20.975 153.97 158.808 20.337L290.996 62.81 132.188 42.52zm12.266 21.289l23.597 12.8-.562 3.768-26.218 6.31.561-4.177 21.069-4.63-19.055-9.895.608-4.176zm22.426 36.314l29.028 3.813-.562 4.312-29.074-3.768.608-4.357zm93.075 14.026c5.593 0 9.802 1.681 12.641 4.993 2.86 3.312 4.307 8.19 4.308 14.662 0 6.455-1.447 11.35-4.308 14.662-2.84 3.312-7.048 4.947-12.64 4.947-5.572 0-9.781-1.635-12.642-4.947-2.839-3.313-4.26-8.207-4.26-14.662 0-6.472 1.421-11.35 4.26-14.662 2.861-3.312 7.07-4.993 12.641-4.993zm-134.696.68h10.16c7.872 0 13.578 1.492 17.041 4.45 3.463 2.94 5.197 7.742 5.197 14.434 0 6.709-1.734 11.552-5.197 14.526-3.463 2.957-9.17 4.448-17.042 4.448h-10.16V114.83zm40.872 0h28.653v6.583h-9.55v24.693h9.55v6.582h-28.653v-6.582h9.598v-24.693h-9.598v-6.582zm38.485 0h13.765c6.194 0 10.607.865 13.296 2.588 2.71 1.724 4.073 4.557 4.073 8.443 0 2.603-.821 4.636-2.434 6.174-1.614 1.537-3.944 2.464-6.976 2.769a5.25 5.25 0 0 1 2.481 1.089c.71.54 1.564 1.589 2.575 3.177l8.708 13.618h-10.44l-5.806-9.578c-.172-.27-.422-.616-.702-1.09-1.7-2.855-3.691-4.311-5.993-4.311h-3.043v14.98h-9.504V114.83zm55.34 6.038c-2.431 0-4.22 1.042-5.338 3.087-1.119 2.028-1.686 5.304-1.686 9.85 0 4.529.568 7.805 1.686 9.85 1.118 2.028 2.907 3.041 5.337 3.041 2.452 0 4.219-1.013 5.338-3.041 1.118-2.045 1.685-5.321 1.685-9.85 0-4.546-.567-7.822-1.685-9.85-1.119-2.045-2.886-3.087-5.338-3.087zm-45.836.272v10.304h4.495c2.602 0 4.452-.385 5.571-1.18 1.14-.81 1.732-2.152 1.732-3.994s-.567-3.155-1.685-3.95c-1.119-.794-2.994-1.18-5.618-1.18h-4.495zm-79.357.454v24.33h2.575c3.742 0 6.414-.926 8.006-2.768 1.592-1.859 2.388-4.997 2.388-9.442 0-4.41-.796-7.509-2.388-9.35-1.592-1.843-4.264-2.77-8.006-2.77h-2.575z"/><path d="M61.2 119.349l-6.872 19.366h13.745l-6.872-19.366m-3.937-4.512h7.905l14.745 37.845h-6.743l-3.55-9.86H52.748l-3.484 9.86H42.52l14.744-37.845m30.168 0h28.586v4.31H93.949v11.203h21.1v4.31h-21.1v13.712h22.682v4.31h-29.2v-37.845m15.907-10.291h6.001l-7.388 6.692h-4.97l6.357-6.692m181.229 33.611v-23.32h6.55v25.652c0 1.842.064 3.16.193 3.954.129.778.355 1.378.678 1.8.688.997 1.677 1.75 2.968 2.256 1.312.507 2.893.76 4.743.76 1.871 0 3.452-.253 4.743-.76 1.29-.507 2.29-1.259 3-2.256.323-.422.549-1.022.678-1.8.129-.777.193-2.078.193-3.903v-25.703h6.518v23.32c0 3.87-.312 6.624-.936 8.264-.602 1.622-1.656 2.965-3.162 4.03-1.42.997-3.043 1.74-4.872 2.23-1.828.49-3.882.736-6.162.736-2.259 0-4.302-.245-6.13-.735-1.829-.49-3.463-1.234-4.905-2.231-1.484-1.048-2.538-2.4-3.162-4.056-.623-1.673-.935-4.419-.935-8.238m37.781-23.32h8.712l8.324 19.264 8.389-19.264h8.743v37.845h-6.033v-33.434l-8.582 19.948h-4.937l-8.614-19.948v33.434h-6.002v-37.845" style="line-height:83.99999738%;-inkscape-font-specification:'DejaVu Sans Mono'" font-weight="400" font-size="39.702" font-family="DejaVu Sans Mono" letter-spacing="0" word-spacing="0"/></svg>