<svg xmlns="http://www.w3.org/2000/svg" viewBox="0 0 432.33554 240.00011" height="256" width="461.158">
    <path d="M123.462 0l-28.88 211.999L313.242 240l28.88-212.063L123.462 0zm16.89 29.312l32.49 17.624-.774 5.189-36.1 8.688.773-5.752 29.01-6.374-26.237-13.625.837-5.75zm30.877 50l39.968 5.25-.774 5.938-40.031-5.188.837-6zm128.153 19.313c7.701 0 13.497 2.314 17.406 6.874 3.937 4.56 5.93 11.277 5.931 20.188 0 8.888-1.992 15.628-5.931 20.188-3.91 4.56-9.705 6.812-17.404 6.812-7.672 0-13.468-2.252-17.407-6.812-3.909-4.561-5.865-11.3-5.865-20.188 0-8.91 1.956-15.627 5.865-20.188 3.94-4.56 9.735-6.874 17.405-6.874zm-185.46.936h13.989c10.839 0 18.695 2.054 23.463 6.127 4.769 4.048 7.156 10.66 7.156 19.874 0 9.237-2.387 15.906-7.156 20-4.768 4.072-12.626 6.125-23.464 6.125h-13.99V99.562zm56.276 0h39.452v9.064H196.5v34h13.15v9.062h-39.452v-9.063h13.215v-34h-13.215v-9.062zm52.99 0h18.952c8.528 0 14.604 1.19 18.307 3.563 3.731 2.374 5.608 6.275 5.608 11.625 0 3.584-1.13 6.384-3.351 8.501-2.223 2.116-5.43 3.393-9.606 3.813a7.229 7.229 0 0 1 3.417 1.5c.977.743 2.153 2.187 3.545 4.374l11.99 18.75h-14.375l-7.994-13.188c-.237-.372-.581-.848-.967-1.5-2.34-3.932-5.082-5.936-8.251-5.936h-4.19v20.625h-13.086V99.562zm76.196 8.314c-3.347 0-5.81 1.434-7.35 4.25-1.54 2.792-2.321 7.303-2.321 13.562 0 6.236.782 10.747 2.321 13.563 1.54 2.792 4.003 4.187 7.348 4.187 3.376 0 5.81-1.395 7.35-4.187 1.54-2.816 2.32-7.327 2.32-13.563 0-6.259-.78-10.77-2.32-13.562-1.54-2.816-3.974-4.25-7.35-4.25zm-63.111.374v14.187h6.19c3.582 0 6.129-.53 7.67-1.624 1.57-1.116 2.384-2.963 2.384-5.5 0-2.536-.78-4.344-2.32-5.438-1.54-1.093-4.122-1.625-7.735-1.625h-6.189zm-109.265.625v33.5h3.545c5.153 0 8.832-1.275 11.024-3.812 2.192-2.56 3.288-6.88 3.288-13 0-6.072-1.096-10.339-3.288-12.874-2.192-2.537-5.871-3.814-11.024-3.814h-3.545zm-101.288-3.09l-9.462 26.665h18.925l-9.461-26.665M20.3 99.572h10.884l20.302 52.108h-9.284l-4.888-13.576H14.083L9.286 151.68H0l20.3-52.108m41.539 0h39.36v5.934H70.811v15.426h29.052v5.934H70.812v18.88h31.23v5.934H61.837V99.572m21.902-14.17h8.263l-10.173 9.215h-6.843l8.753-9.215m249.531 46.279V99.57h9.019v35.32c0 2.537.088 4.352.266 5.445.177 1.071.488 1.897.933 2.478.947 1.373 2.31 2.41 4.087 3.107 1.806.698 3.983 1.046 6.53 1.046 2.576 0 4.753-.348 6.53-1.046 1.777-.699 3.154-1.734 4.131-3.107.445-.58.756-1.407.934-2.478.178-1.07.266-2.861.266-5.374v-35.39h8.974v32.109c0 5.328-.43 9.12-1.289 11.378-.828 2.234-2.28 4.083-4.353 5.55-1.955 1.372-4.19 2.395-6.708 3.07-2.517.674-5.346 1.013-8.485 1.013-3.11 0-5.923-.337-8.44-1.012-2.518-.675-4.768-1.699-6.754-3.072-2.043-1.443-3.494-3.304-4.353-5.584-.858-2.304-1.288-6.085-1.288-11.343m52.02-32.11h11.996l11.46 26.525 11.551-26.524h12.039v52.108h-8.307v-46.035l-11.817 27.466h-6.797l-11.86-27.466v46.035h-8.265V99.572"/>
</svg>
