<?xml version="1.0" encoding="utf-8"?>
<!-- Generator: Adobe Illustrator 23.0.1, SVG Export Plug-In . SVG Version: 6.00 Build 0)  -->
<svg version="1.1" id="Layer_1" xmlns="http://www.w3.org/2000/svg" xmlns:xlink="http://www.w3.org/1999/xlink" x="0px" y="0px"
	 viewBox="0 0 324.3 180" style="enable-background:new 0 0 324.3 180;" xml:space="preserve">
<style type="text/css">
	.st0{fill:#1E1E1E;}
	.st1{fill:#171717;}
</style>
<g>
	<path class="st0" d="M115.8,8L77,130.6c-0.6,1.8,0.4,3.7,2.2,4.2l128.3,39.4c1.8,0.5,3.6-0.4,4.2-2.2l38.8-122.7
		c0.6-1.8-0.4-3.7-2.2-4.2L120,5.8C118.2,5.2,116.3,6.2,115.8,8z M121.2,26.7l19.8,14.4c0.9,0.7,1.4,1.8,1.2,2.9
		c-0.3,2-0.9,5-1.1,5.6l0,0c-0.5,1.4-1.8,2.3-3.2,2.3l-26.1,0.6c-0.6,0-0.9-0.5-0.8-1l1.8-6.6c0.1-0.3,0.4-0.5,0.8-0.5l15-0.3
		c0.8,0,1-0.9,0.5-1.4L117.9,34c-0.3-0.2-0.3-0.6-0.3-0.9l1.5-6C119.5,26.5,120.5,26.1,121.2,26.7L121.2,26.7z M134.5,60.4l24,5.4
		c0.3,0.1,0.6,0.4,0.5,0.7l-1.5,5c-0.1,0.3-0.4,0.6-0.7,0.5l-24-4.6c-0.3-0.1-0.6-0.4-0.5-0.7l1.5-5.8
		C133.8,60.6,134.1,60.3,134.5,60.4z M215.4,75.7c4.9,0,8.6,1.4,11.2,4.4c2.6,2.9,3.7,7.2,3.7,12.9c0,5.7-1.3,10-3.7,12.9
		c-2.5,2.9-6.2,4.3-11.2,4.3c-4.9,0-8.6-1.4-11.2-4.3c-2.5-2.9-3.7-7.2-3.7-12.9c0-5.7,1.3-10,3.7-12.9
		C206.8,77.2,210.6,75.7,215.4,75.7z M106,75.8c6.9,0,11.9,1.3,15,3.9c3.1,2.6,4.6,7.8,4.6,13.7c0,5.9-1.5,10.1-4.6,12.8
		c-3.1,2.6-8.1,3.9-15,3.9h-8.3c-0.3,0-0.7-0.3-0.7-0.7V76.8c0-0.5,0.4-1,1-1H106z M157.7,75.9c0.3,0,0.7,0.3,0.7,0.7v5.5
		c0,0.3-0.3,0.7-0.7,0.7h-7.2c-0.3,0-0.7,0.3-0.7,0.7v19c0,0.3,0.3,0.7,0.7,0.7h7.2c0.3,0,0.7,0.3,0.7,0.7v5.7
		c0,0.3-0.3,0.7-0.7,0.7h-24.3c-0.3,0-0.7-0.3-0.7-0.7v-5.7c0-0.3,0.3-0.7,0.7-0.7h7.2c0.3,0,0.7-0.3,0.7-0.7V83.4
		c0-0.3-0.3-0.7-0.7-0.7h-7.2c-0.3,0-0.7-0.3-0.7-0.7v-5c0-0.6,0.5-1.2,1.2-1.1L157.7,75.9z M198,109c0.3,0.4,0,1-0.6,1h-7.7
		c-0.3,0-0.4-0.1-0.6-0.3l-5.1-8.5c-0.2-0.3-0.3-0.5-0.6-0.9c-1.6-2.6-3.3-3.9-5.5-3.9h-2c-0.3,0-0.7,0.3-0.7,0.7v12.4
		c0,0.3-0.3,0.7-0.7,0.7h-7.2c-0.3,0-0.7-0.3-0.7-0.7L166.6,77c0-0.6,0.5-1.1,1.1-1.1h1.8h11.9c4.1,0,7.9,2,10.2,5.3l0,0
		c1.4,1.9,1.7,5.1,1.1,7.7c-0.4,1.8-1.5,4.3-3.1,5.3l-0.9,0.6c-0.6,0.7-0.1,1.3,0.5,2 M215.4,82.6c-2.1,0-3.7,0.9-4.7,2.7
		c-1,1.8-1.4,3.7-1.4,7.7c0,4,0.5,5.9,1.4,7.7c1,1.8,2.6,2.6,4.7,2.6c2.1,0,3.7-0.9,4.7-2.6c1-1.8,1.4-3.7,1.4-7.7
		c0-4-0.5-5.9-1.4-7.7C219.2,83.5,217.6,82.6,215.4,82.6L215.4,82.6z M185.2,87c0-2.3-1.9-4.2-4.2-4.2h-3.9h-1
		c-0.4,0-0.7,0.3-0.7,0.7v7c0,0.3,0.3,0.7,0.7,0.7h4.9C183.3,91.1,185.1,89.3,185.2,87L185.2,87z M105.5,102.4
		c0,0.3,0.3,0.7,0.7,0.7h1.6c3.3,0,5.5-0.9,7-2.5c1.4-1.6,2.1-4.3,2.1-8.3c0-3.8-0.7-5.6-2.1-7.2c-1.4-1.6-3.7-2.5-7-2.5h-0.7
		c-0.9,0-1.6,0.7-1.6,1.6V102.4z M35.2,86.9l-3.2,8.8c-0.1,0.3,0.1,0.6,0.4,0.6H39c0.3,0,0.5-0.3,0.4-0.6l-3.4-9.5
		c-0.1-0.3-0.5-0.3-0.6,0L35.2,86.9z M33.5,75.9h5.4c0.3,0,0.5,0.2,0.6,0.4l12.4,32.8c0.2,0.4-0.2,0.9-0.6,0.9h-5.7
		c-0.3,0-0.5-0.2-0.6-0.4l-2.7-6.1c-0.1-0.3-0.3-0.4-0.6-0.4H30c-0.3,0-0.5,0.2-0.6,0.4l-2.7,6.1c-0.1,0.3-0.3,0.4-0.6,0.4h-5.7
		c-0.4,0-0.8-0.4-0.6-0.9L32.1,77C32.2,76.3,32.8,75.9,33.5,75.9L33.5,75.9z M76.1,94.7c0,0.9-0.7,1.6-1.6,1.6h-9.2
		c-0.3,0-0.7,0.3-0.7,0.7v5.4c0,0.3,0.3,0.7,0.7,0.7h14.8c0.9,0,1.6,0.7,1.6,1.6v3.9c0,0.9-0.7,1.6-1.6,1.6H57.7
		c-0.3,0-0.7-0.3-0.7-0.7l0-32.2c0-0.6,0.5-1.2,1.2-1.2h6h15.9c0.9,0,1.6,0.7,1.6,1.6l0,2.7c0,0.1,0,0.4,0,0.8
		c0,0.9-0.7,1.7-1.4,1.7H64.6v6.8c0,0.3,0.3,0.7,0.7,0.7h9.2c0.9,0,1.6,0.7,1.6,1.6V94.7z M244.3,96.8V77.1c0-0.6,0.5-1.2,1.2-1.2
		h5.6c0.6,0,1.2,0.5,1.2,1.2v18.9c0,1.6,0.1,2.8,0.2,3.5c0.1,0.7,0.3,1.2,0.6,1.6c0.4,0.6,1,1.2,1.8,1.5c0.5,0.3,1.1,0.4,1.7,0.4h2
		c1,0,2-0.3,2.9-0.9c0.4-0.3,0.8-0.7,1-1c0.3-0.3,0.5-0.9,0.6-1.6c0.1-0.7,0.2-1.8,0.2-3.4V76.6c0-0.3,0.3-0.7,0.7-0.7h6.4
		c0.3,0,0.7,0.3,0.7,0.7v20c0,3.4-0.3,5.8-0.9,7.2c-0.5,1.4-1.4,2.6-2.8,3.6c-1.3,0.9-2.6,1.5-4.3,2c-1.6,0.4-3.4,0.7-5.5,0.7
		c-2,0-3.7-0.3-5.4-0.7s-3.1-1.1-4.3-2c-1.3-0.9-2.2-2.1-2.8-3.6v-0.1c-0.5-1.5-0.8-3.9-0.8-7.2L244.3,96.8L244.3,96.8z M299.9,76.4
		c0.2-0.5,0.5-0.5,0.8-0.5h6.3c0.3,0,0.7,0.3,0.7,0.7v33c0,0.3-0.3,0.7-0.7,0.7h-5.5c-0.3,0-0.7-0.3-0.7-0.7V89.8
		c0-0.7-0.1-0.7-0.4-0.3l-5.4,6.1c-0.3,0.4-0.8,0.6-1.4,0.6h-1.9c-0.5,0-1-0.2-1.4-0.6l-5.4-6.1c-0.3-0.3-0.4-0.4-0.4,0.3v19.7
		c0,0.3-0.3,0.7-0.7,0.7h-5.5c-0.3,0-0.7-0.3-0.7-0.7V77c0-0.6,0.5-1.1,1.1-1.1h1.2h4.5c0.3,0,0.7,0,1,0.4l6.9,10.7
		c0.2,0.3,0.5,0.3,0.7,0L299.9,76.4z"/>
	<path class="st1" d="M71.3,60.3h6.6c0.9,0,1.4,1.1,0.7,1.8l-10.1,9.3c-0.6,0.6-1.4,0.9-2.3,0.9h-4.3c-1.2,0-1.8-1.4-1-2.3l8.2-8.7
		C69.6,60.6,70.4,60.3,71.3,60.3L71.3,60.3z"/>
</g>
</svg>
