<svg xmlns="http://www.w3.org/2000/svg" xml:space="preserve" style="enable-background:new 0 0 324.3 180" viewBox="0 0 324.3 180">
  <style>
    path { fill: #1e1e1e; }
    @media (prefers-color-scheme: dark) { path { fill: #fefefe; } }
  </style>
  <path d="M115.8 8 77 130.6c-.6 1.8.4 3.7 2.2 4.2l128.3 39.4c1.8.5 3.6-.4 4.2-2.2l38.8-122.7c.6-1.8-.4-3.7-2.2-4.2L120 5.8c-1.8-.6-3.7.4-4.2 2.2zm5.4 18.7L141 41.1c.9.7 1.4 1.8 1.2 2.9-.3 2-.9 5-1.1 5.6-.5 1.4-1.8 2.3-3.2 2.3l-26.1.6c-.6 0-.9-.5-.8-1l1.8-6.6c.1-.3.4-.5.8-.5l15-.3c.8 0 1-.9.5-1.4L117.9 34c-.3-.2-.3-.6-.3-.9l1.5-6c.4-.6 1.4-1 2.1-.4zm13.3 33.7 24 5.4c.3.1.6.4.5.7l-1.5 5c-.1.3-.4.6-.7.5l-24-4.6c-.3-.1-.6-.4-.5-.7l1.5-5.8c0-.3.3-.6.7-.5zm80.9 15.3c4.9 0 8.6 1.4 11.2 4.4 2.6 2.9 3.7 7.2 3.7 12.9s-1.3 10-3.7 12.9c-2.5 2.9-6.2 4.3-11.2 4.3-4.9 0-8.6-1.4-11.2-4.3-2.5-2.9-3.7-7.2-3.7-12.9s1.3-10 3.7-12.9c2.6-2.9 6.4-4.4 11.2-4.4zm-109.4.1c6.9 0 11.9 1.3 15 3.9 3.1 2.6 4.6 7.8 4.6 13.7 0 5.9-1.5 10.1-4.6 12.8-3.1 2.6-8.1 3.9-15 3.9h-8.3c-.3 0-.7-.3-.7-.7V76.8c0-.5.4-1 1-1h8zm51.7.1c.3 0 .7.3.7.7v5.5c0 .3-.3.7-.7.7h-7.2c-.3 0-.7.3-.7.7v19c0 .3.3.7.7.7h7.2c.3 0 .7.3.7.7v5.7c0 .3-.3.7-.7.7h-24.3c-.3 0-.7-.3-.7-.7v-5.7c0-.3.3-.7.7-.7h7.2c.3 0 .7-.3.7-.7V83.4c0-.3-.3-.7-.7-.7h-7.2c-.3 0-.7-.3-.7-.7v-5c0-.6.5-1.2 1.2-1.1h23.8zM198 109c.3.4 0 1-.6 1h-7.7c-.3 0-.4-.1-.6-.3l-5.1-8.5c-.2-.3-.3-.5-.6-.9-1.6-2.6-3.3-3.9-5.5-3.9h-2c-.3 0-.7.3-.7.7v12.4c0 .3-.3.7-.7.7h-7.2c-.3 0-.7-.3-.7-.7V77c0-.6.5-1.1 1.1-1.1h13.7c4.1 0 7.9 2 10.2 5.3 1.4 1.9 1.7 5.1 1.1 7.7-.4 1.8-1.5 4.3-3.1 5.3l-.9.6c-.6.7-.1 1.3.5 2m26.2-14.2c-2.1 0-3.7.9-4.7 2.7-1 1.8-1.4 3.7-1.4 7.7s.5 5.9 1.4 7.7c1 1.8 2.6 2.6 4.7 2.6s3.7-.9 4.7-2.6c1-1.8 1.4-3.7 1.4-7.7s-.5-5.9-1.4-7.7c-.9-1.8-2.5-2.7-4.7-2.7zM185.2 87c0-2.3-1.9-4.2-4.2-4.2h-4.9c-.4 0-.7.3-.7.7v7c0 .3.3.7.7.7h4.9c2.3-.1 4.1-1.9 4.2-4.2zm-79.7 15.4c0 .3.3.7.7.7h1.6c3.3 0 5.5-.9 7-2.5 1.4-1.6 2.1-4.3 2.1-8.3 0-3.8-.7-5.6-2.1-7.2-1.4-1.6-3.7-2.5-7-2.5h-.7c-.9 0-1.6.7-1.6 1.6v18.2zM35.2 86.9 32 95.7c-.1.3.1.6.4.6H39c.3 0 .5-.3.4-.6L36 86.2c-.1-.3-.5-.3-.6 0l-.2.7zm-1.7-11h5.4c.3 0 .5.2.6.4l12.4 32.8c.2.4-.2.9-.6.9h-5.7c-.3 0-.5-.2-.6-.4l-2.7-6.1c-.1-.3-.3-.4-.6-.4H30c-.3 0-.5.2-.6.4l-2.7 6.1c-.1.3-.3.4-.6.4h-5.7c-.4 0-.8-.4-.6-.9L32.1 77c.1-.7.7-1.1 1.4-1.1zm42.6 18.8c0 .9-.7 1.6-1.6 1.6h-9.2c-.3 0-.7.3-.7.7v5.4c0 .3.3.7.7.7h14.8c.9 0 1.6.7 1.6 1.6v3.9c0 .9-.7 1.6-1.6 1.6H57.7c-.3 0-.7-.3-.7-.7V77.3c0-.6.5-1.2 1.2-1.2h21.9c.9 0 1.6.7 1.6 1.6v3.5c0 .9-.7 1.7-1.4 1.7H64.6v6.8c0 .3.3.7.7.7h9.2c.9 0 1.6.7 1.6 1.6v2.7zm168.2 2.1V77.1c0-.6.5-1.2 1.2-1.2h5.6c.6 0 1.2.5 1.2 1.2V96c0 1.6.1 2.8.2 3.5.1.7.3 1.2.6 1.6.4.6 1 1.2 1.8 1.5.5.3 1.1.4 1.7.4h2c1 0 2-.3 2.9-.9.4-.3.8-.7 1-1 .3-.3.5-.9.6-1.6.1-.7.2-1.8.2-3.4V76.6c0-.3.3-.7.7-.7h6.4c.3 0 .7.3.7.7v20c0 3.4-.3 5.8-.9 7.2-.5 1.4-1.4 2.6-2.8 3.6-1.3.9-2.6 1.5-4.3 2-1.6.4-3.4.7-5.5.7-2 0-3.7-.3-5.4-.7s-3.1-1.1-4.3-2c-1.3-.9-2.2-2.1-2.8-3.6v-.1c-.5-1.5-.8-3.9-.8-7.2v.3zm55.6-20.4c.2-.5.5-.5.8-.5h6.3c.3 0 .7.3.7.7v33c0 .3-.3.7-.7.7h-5.5c-.3 0-.7-.3-.7-.7V89.8c0-.7-.1-.7-.4-.3l-5.4 6.1c-.3.4-.8.6-1.4.6h-1.9c-.5 0-1-.2-1.4-.6l-5.4-6.1c-.3-.3-.4-.4-.4.3v19.7c0 .3-.3.7-.7.7h-5.5c-.3 0-.7-.3-.7-.7V77c0-.6.5-1.1 1.1-1.1h5.7c.3 0 .7 0 1 .4l6.9 10.7c.2.3.5.3.7 0l6.9-10.6zM71.3 60.3h6.6c.9 0 1.4 1.1.7 1.8l-10.1 9.3c-.6.6-1.4.9-2.3.9h-4.3c-1.2 0-1.8-1.4-1-2.3l8.2-8.7c.5-.7 1.3-1 2.2-1z"/>
</svg>
