<svg xmlns="http://www.w3.org/2000/svg" viewBox="0 0 173.85 168.76">
  <style>
    path { fill: #1e1e1e; }
    @media (prefers-color-scheme: dark) { path { fill: #fefefe; } }
  </style>
  <path d="M115.78 8 77 130.59a3.34 3.34 0 0 0 2.2 4.21l128.32 39.43a3.35 3.35 0 0 0 4.17-2.19l38.8-122.72a3.34 3.34 0 0 0-2.21-4.2L120 5.77A3.35 3.35 0 0 0 115.78 8Zm21.61 40.93 34.93 25.34a5.25 5.25 0 0 1 2.1 5.1c-.6 3.44-1.5 8.84-1.95 9.89a6.14 6.14 0 0 1-5.7 4l-45.87 1a1.34 1.34 0 0 1-1.35-1.8l3.15-11.69a1.31 1.31 0 0 1 1.35-.9l26.38-.45a1.37 1.37 0 0 0 .9-2.4l-19.79-15.23a1.44 1.44 0 0 1-.45-1.5l2.7-10.5a2.32 2.32 0 0 1 3.6-.9Zm20.32 68.72a1.17 1.17 0 0 1-.76-1.43l4-9.84a1.16 1.16 0 0 1 1.43-.75l40.55 15.19a1.18 1.18 0 0 1 .76 1.44l-3.73 8.35a1.16 1.16 0 0 1-1.43.76" transform="translate(-76.8 -5.62)"/>
</svg>
