<svg xmlns="http://www.w3.org/2000/svg" viewBox="0 0 324.25195 180.00008">
    <path d="M92.596 0l-21.66 159 163.995 21 21.66-159.047L92.596 0zm12.668 21.984l24.367 13.218-.58 3.892-27.075 6.516.58-4.314 21.757-4.78-19.678-10.22.628-4.312zm23.158 37.5l29.976 3.938-.58 4.453-30.024-3.891.628-4.5zm96.114 14.485c5.776 0 10.123 1.735 13.055 5.155 2.953 3.42 4.447 8.458 4.448 15.141 0 6.666-1.494 11.721-4.448 15.141-2.933 3.42-7.279 5.11-13.053 5.11-5.754 0-10.101-1.69-13.055-5.11-2.932-3.42-4.4-8.475-4.4-15.14 0-6.683 1.468-11.721 4.4-15.142 2.955-3.42 7.301-5.155 13.053-5.155zm-139.095.702h10.492c8.13 0 14.021 1.54 17.597 4.595 3.577 3.036 5.367 7.995 5.367 14.906 0 6.927-1.79 11.929-5.367 15-3.576 3.054-9.47 4.593-17.598 4.593H85.44V74.672zm42.207 0h29.59v6.798h-9.863v25.5h9.862v6.796h-29.589v-6.797h9.912v-25.5h-9.912v-6.796zm39.743 0h14.214c6.396 0 10.953.892 13.73 2.672 2.798 1.78 4.206 4.706 4.206 8.719 0 2.688-.847 4.788-2.513 6.376-1.667 1.587-4.073 2.544-7.205 2.86a5.422 5.422 0 0 1 2.563 1.124c.733.558 1.615 1.64 2.659 3.28l8.992 14.063h-10.78l-5.996-9.89c-.178-.28-.436-.637-.726-1.126-1.755-2.949-3.811-4.452-6.188-4.452h-3.142v15.469h-9.815V74.672zm57.147 6.235c-2.51 0-4.358 1.076-5.513 3.188-1.155 2.094-1.74 5.477-1.74 10.171 0 4.677.586 8.06 1.74 10.173 1.155 2.094 3.003 3.14 5.511 3.14 2.532 0 4.358-1.046 5.513-3.14 1.155-2.112 1.74-5.496 1.74-10.173 0-4.694-.585-8.077-1.74-10.171-1.155-2.112-2.98-3.188-5.513-3.188zm-47.333.28v10.641h4.642c2.687 0 4.597-.397 5.753-1.218 1.177-.837 1.788-2.222 1.788-4.125 0-1.902-.585-3.258-1.74-4.078-1.155-.82-3.092-1.22-5.802-1.22h-4.641zm-81.95.47v25.125h2.66c3.864 0 6.624-.957 8.268-2.86 1.644-1.92 2.466-5.16 2.466-9.75 0-4.553-.822-7.754-2.466-9.655-1.644-1.903-4.404-2.86-8.268-2.86h-2.66zM19.29 79.338l-7.097 19.999h14.194l-7.096-19.999m-4.066-4.659h8.163l15.226 39.081h-6.963l-3.666-10.182H10.562L6.964 113.76H0l15.225-39.081m31.154 0H75.9v4.45H53.11V90.7h21.788v4.45H53.11v14.16h23.42v4.451H46.378V74.679m16.426-10.627h6.197l-7.63 6.91H56.24l6.565-6.91M249.952 98.76V74.678h6.765v26.49c0 1.902.066 3.264.2 4.083.132.804.365 1.423.699 1.859.71 1.03 1.732 1.807 3.065 2.33 1.355.524 2.987.785 4.898.785 1.932 0 3.564-.261 4.897-.785 1.333-.524 2.366-1.3 3.098-2.33.334-.435.567-1.055.701-1.859.133-.802.2-2.145.2-4.03V74.678h6.73V98.76c0 3.996-.323 6.84-.967 8.534-.62 1.675-1.71 3.062-3.265 4.162-1.466 1.029-3.142 1.796-5.03 2.303-1.888.505-4.01.76-6.364.76-2.333 0-4.443-.253-6.33-.76-1.889-.506-3.576-1.274-5.066-2.304-1.532-1.082-2.62-2.478-3.265-4.188-.643-1.728-.966-4.563-.966-8.507m39.015-24.082h8.997l8.595 19.893 8.664-19.893h9.029v39.081h-6.23V79.233l-8.863 20.6h-5.098l-8.895-20.6v34.526h-6.199V74.68"/>
</svg>
